<svg width="11" height="4" viewBox="0 0 11 4" fill="none" xmlns="http://www.w3.org/2000/svg">
<rect width="11" height="4" fill="#F5F5F5"/>
<g clip-path="url(#clip0_0_1)">
<path fill-rule="evenodd" clip-rule="evenodd" d="M2.25022 2.19958L3.00781 3.4375L2.24978 3.23492L1.49219 3.4375L2.25022 2.19958Z" fill="#1EED4B"/>
<path d="M4.94663 1.64786V1.83037H4.72717V2.47264H4.49837V1.83037H4.28125V1.64786H4.94663ZM5.6517 2.19069H5.21862C5.22095 2.22657 5.23088 2.25328 5.24839 2.27083C5.2659 2.28838 5.28827 2.29715 5.31551 2.29715C5.35364 2.29715 5.38088 2.27999 5.39722 2.24568H5.64119C5.63107 2.29091 5.61142 2.33127 5.58224 2.36676C5.55306 2.40225 5.51629 2.43013 5.47193 2.45041C5.42757 2.47069 5.37854 2.48083 5.32485 2.48083C5.26025 2.48083 5.20286 2.46718 5.15266 2.43988C5.10247 2.41258 5.06317 2.37359 5.03476 2.32289C5.00636 2.2722 4.99216 2.21253 4.99216 2.1439C4.99216 2.07526 5.00617 2.01579 5.03418 1.96549C5.0622 1.91518 5.1013 1.87638 5.1515 1.84908C5.20169 1.82179 5.25948 1.80814 5.32485 1.80814C5.38944 1.80814 5.44664 1.8214 5.49644 1.84791C5.54625 1.87443 5.58516 1.91245 5.61318 1.96198C5.64119 2.0115 5.6552 2.0698 5.6552 2.13688C5.6552 2.15482 5.65403 2.17275 5.6517 2.19069ZM5.42173 2.07955C5.42173 2.05148 5.4124 2.02944 5.39372 2.01345C5.37504 1.99747 5.35169 1.98947 5.32368 1.98947C5.29566 1.98947 5.27271 1.99708 5.25481 2.01228C5.23691 2.02749 5.22523 2.04992 5.21979 2.07955H5.42173ZM5.7457 1.96607C5.77021 1.91538 5.80368 1.87638 5.84609 1.84908C5.8885 1.82179 5.93578 1.80814 5.98792 1.80814C6.03306 1.80814 6.07197 1.81711 6.10465 1.83505C6.13734 1.85298 6.16263 1.87716 6.18053 1.90758V1.81633H6.40933V2.47264H6.18053V2.38138C6.16263 2.4118 6.13714 2.43598 6.10407 2.45392C6.071 2.47186 6.03228 2.48083 5.98792 2.48083C5.93578 2.48083 5.8885 2.46718 5.84609 2.43988C5.80368 2.41258 5.77021 2.37339 5.7457 2.32231C5.72119 2.27122 5.70893 2.21175 5.70893 2.1439C5.70893 2.07604 5.72119 2.01677 5.7457 1.96607ZM6.14609 2.04446C6.12314 2.02028 6.09493 2.00819 6.06146 2.00819C6.02722 2.00819 5.99882 2.02008 5.97625 2.04387C5.95368 2.06766 5.94239 2.101 5.94239 2.1439C5.94239 2.18601 5.95368 2.21935 5.97625 2.24392C5.99882 2.26849 6.02722 2.28077 6.06146 2.28077C6.09493 2.28077 6.12314 2.26869 6.14609 2.24451C6.16905 2.22033 6.18053 2.18679 6.18053 2.1439C6.18053 2.10178 6.16905 2.06863 6.14609 2.04446ZM7.58774 1.88535C7.63482 1.93527 7.65836 2.00351 7.65836 2.09008V2.47264H7.42956V2.1205C7.42956 2.0854 7.41983 2.0581 7.40038 2.03861C7.38092 2.01911 7.35446 2.00936 7.321 2.00936C7.28754 2.00936 7.26108 2.01911 7.24162 2.03861C7.22217 2.0581 7.21244 2.0854 7.21244 2.1205V2.47264H6.98364V2.1205C6.98364 2.0854 6.97411 2.0581 6.95504 2.03861C6.93598 2.01911 6.90971 2.00936 6.87625 2.00936C6.84201 2.00936 6.81516 2.01911 6.7957 2.03861C6.77625 2.0581 6.76652 2.0854 6.76652 2.1205V2.47264H6.53772V1.81633H6.76652V1.9029C6.78675 1.87482 6.81302 1.8524 6.84531 1.83563C6.87761 1.81886 6.91477 1.81048 6.95679 1.81048C7.00504 1.81048 7.04804 1.82101 7.08578 1.84206C7.12353 1.86312 7.15329 1.89276 7.17508 1.93098C7.19843 1.8951 7.22917 1.86605 7.2673 1.84382C7.30544 1.82159 7.34746 1.81048 7.39337 1.81048C7.47587 1.81048 7.54065 1.83544 7.58774 1.88535ZM7.96305 2.42643C7.89846 2.39016 7.84729 2.33985 7.80955 2.27551C7.7718 2.21117 7.75293 2.13844 7.75293 2.05732C7.75293 1.97621 7.7718 1.90348 7.80955 1.83914C7.84729 1.7748 7.89846 1.72469 7.96305 1.68881C8.02764 1.65293 8.09846 1.63499 8.1755 1.63499C8.25333 1.63499 8.32434 1.65293 8.38854 1.68881C8.45274 1.72469 8.50352 1.7748 8.54088 1.83914C8.57823 1.90348 8.59691 1.97621 8.59691 2.05732C8.59691 2.13844 8.57823 2.21117 8.54088 2.27551C8.50352 2.33985 8.45255 2.39016 8.38796 2.42643C8.32337 2.46269 8.25255 2.48083 8.1755 2.48083C8.09846 2.48083 8.02764 2.46269 7.96305 2.42643ZM8.31383 2.21058C8.34768 2.17236 8.36461 2.12128 8.36461 2.05732C8.36461 1.99181 8.34768 1.94014 8.31383 1.90231C8.27998 1.86449 8.23387 1.84557 8.1755 1.84557C8.11636 1.84557 8.07006 1.86449 8.03659 1.90231C8.00313 1.94014 7.9864 1.99181 7.9864 2.05732C7.9864 2.12206 8.00313 2.17334 8.03659 2.21117C8.07006 2.24899 8.11636 2.26791 8.1755 2.26791C8.23387 2.26791 8.27998 2.2488 8.31383 2.21058ZM9.01947 1.84323C9.05604 1.8214 9.09534 1.81048 9.13737 1.81048V2.05498H9.07316C9.02336 2.05498 8.98639 2.06473 8.96227 2.08423C8.93814 2.10373 8.92608 2.13766 8.92608 2.18601V2.47264H8.69728V1.81633H8.92608V1.93215C8.95176 1.89471 8.98289 1.86507 9.01947 1.84323ZM9.52144 1.83446C9.55413 1.81691 9.59265 1.80814 9.63701 1.80814C9.68915 1.80814 9.73643 1.82179 9.77884 1.84908C9.82125 1.87638 9.85472 1.91538 9.87923 1.96607C9.90374 2.01677 9.916 2.07604 9.916 2.1439C9.916 2.21175 9.90374 2.27122 9.87923 2.32231C9.85472 2.37339 9.82125 2.41258 9.77884 2.43988C9.73643 2.46718 9.68915 2.48083 9.63701 2.48083C9.59265 2.48083 9.55413 2.47205 9.52144 2.4545C9.48876 2.43695 9.46347 2.41258 9.44557 2.38138V2.47264H9.21677V1.60692H9.44557V1.90758C9.46347 1.87638 9.48876 1.85201 9.52144 1.83446ZM9.64927 2.04387C9.62631 2.02008 9.5981 2.00819 9.56463 2.00819C9.53117 2.00819 9.50296 2.02028 9.48 2.04446C9.45705 2.06863 9.44557 2.10178 9.44557 2.1439C9.44557 2.18679 9.45705 2.22033 9.48 2.24451C9.50296 2.26869 9.53117 2.28077 9.56463 2.28077C9.5981 2.28077 9.62631 2.26849 9.64927 2.24392C9.67222 2.21935 9.6837 2.18601 9.6837 2.1439C9.6837 2.101 9.67222 2.06766 9.64927 2.04387ZM10.0263 1.72215C10.0018 1.69992 9.98953 1.67204 9.98953 1.6385C9.98953 1.60419 10.0018 1.57572 10.0263 1.5531C10.0508 1.53048 10.0833 1.51917 10.1238 1.51917C10.1635 1.51917 10.1956 1.53048 10.2201 1.5531C10.2446 1.57572 10.2569 1.60419 10.2569 1.6385C10.2569 1.67204 10.2446 1.69992 10.2201 1.72215C10.1956 1.74438 10.1635 1.75549 10.1238 1.75549C10.0833 1.75549 10.0508 1.74438 10.0263 1.72215ZM10.237 1.81633V2.47264H10.0082V1.81633H10.237ZM10.7518 2.27726V2.47264H10.6526C10.4852 2.47264 10.4016 2.38957 10.4016 2.22345V2.00702H10.321V1.81633H10.4016V1.65722H10.6315V1.81633H10.7506V2.00702H10.6315V2.22696C10.6315 2.2449 10.6356 2.25777 10.6438 2.26557C10.652 2.27336 10.6658 2.27726 10.6852 2.27726H10.7518Z" fill="black"/>
<path fill-rule="evenodd" clip-rule="evenodd" d="M0.576817 2.40417L1.17194 3.4375L1.57342 2.73955L1.21884 2.12404L1.73522 1.22883H2.76797L3.28047 2.12404L2.92632 2.73955L3.3278 3.43707L3.92293 2.40417C4.02569 2.23133 4.02569 2.01588 3.92293 1.84304L3.3278 0.810573C3.22997 0.635635 3.04451 0.528457 2.84456 0.531305H1.65475C1.45495 0.528617 1.2697 0.635772 1.17194 0.810573L0.576817 1.84391C0.474394 2.01653 0.474394 2.23154 0.576817 2.40417Z" fill="#E83F25" fill-opacity="0.97"/>
</g>
<defs>
<clipPath id="clip0_0_1">
<rect width="11" height="4" fill="white"/>
</clipPath>
</defs>
</svg>
