<svg width="11" height="4" xmlns="http://www.w3.org/2000/svg" fill="none">
 <defs>
  <clipPath id="clip0_0_1">
   <rect id="svg_1" fill="white" height="4" width="11"/>
  </clipPath>
 </defs>
 <g>
  <title>Layer 1</title>
  <rect opacity="0" id="svg_2" fill="#F5F5F5" height="4" width="11"/>
  <g id="svg_3" clip-path="url(#clip0_0_1)">
   <path id="svg_4" fill="#1EED4B" d="m2.12432,2.31226l0.75759,1.23792l-0.75803,-0.20258l-0.75759,0.20258l0.75803,-1.23792z" clip-rule="evenodd" fill-rule="evenodd"/>
   <path id="svg_5" fill="black" d="m4.82073,1.76054l0,0.18251l-0.21946,0l0,0.64227l-0.2288,0l0,-0.64227l-0.21712,0l0,-0.18251l0.66538,0zm0.70507,0.54283l-0.43308,0c0.00233,0.03588 0.01226,0.06259 0.02977,0.08014c0.01751,0.01755 0.03988,0.02632 0.06712,0.02632c0.03813,0 0.06537,-0.01716 0.08171,-0.05147l0.24397,0c-0.01012,0.04523 -0.02977,0.08559 -0.05895,0.12108c-0.02918,0.03549 -0.06595,0.06337 -0.11031,0.08365c-0.04436,0.02028 -0.09339,0.03042 -0.14708,0.03042c-0.0646,0 -0.12199,-0.01365 -0.17219,-0.04095c-0.05019,-0.0273 -0.08949,-0.06629 -0.1179,-0.11699c-0.0284,-0.05069 -0.0426,-0.11036 -0.0426,-0.17899c0,-0.06864 0.01401,-0.12811 0.04202,-0.17841c0.02802,-0.05031 0.06712,-0.08911 0.11732,-0.11641c0.05019,-0.02729 0.10798,-0.04094 0.17335,-0.04094c0.06459,0 0.12179,0.01326 0.17159,0.03977c0.04981,0.02652 0.08872,0.06454 0.11674,0.11407c0.02801,0.04952 0.04202,0.10782 0.04202,0.1749c0,0.01794 -0.00117,0.03587 -0.0035,0.05381zm-0.22997,-0.11114c0,-0.02807 -0.00933,-0.05011 -0.02801,-0.0661c-0.01868,-0.01598 -0.04203,-0.02398 -0.07004,-0.02398c-0.02802,0 -0.05097,0.00761 -0.06887,0.02281c-0.0179,0.01521 -0.02958,0.03764 -0.03502,0.06727l0.20194,0zm0.32397,-0.11348c0.02451,-0.05069 0.05798,-0.08969 0.10039,-0.11699c0.04241,-0.02729 0.08969,-0.04094 0.14183,-0.04094c0.04514,0 0.08405,0.00897 0.11673,0.02691c0.03269,0.01793 0.05798,0.04211 0.07588,0.07253l0,-0.09125l0.2288,0l0,0.65631l-0.2288,0l0,-0.09126c-0.0179,0.03042 -0.04339,0.0546 -0.07646,0.07254c-0.03307,0.01794 -0.07179,0.02691 -0.11615,0.02691c-0.05214,0 -0.09942,-0.01365 -0.14183,-0.04095c-0.04241,-0.0273 -0.07588,-0.06649 -0.10039,-0.11757c-0.02451,-0.05109 -0.03677,-0.11056 -0.03677,-0.17841c0,-0.06786 0.01226,-0.12713 0.03677,-0.17783zm0.40039,0.07839c-0.02295,-0.02418 -0.05116,-0.03627 -0.08463,-0.03627c-0.03424,0 -0.06264,0.01189 -0.08521,0.03568c-0.02257,0.02379 -0.03386,0.05713 -0.03386,0.10003c0,0.04211 0.01129,0.07545 0.03386,0.10002c0.02257,0.02457 0.05097,0.03685 0.08521,0.03685c0.03347,0 0.06168,-0.01208 0.08463,-0.03626c0.02296,-0.02418 0.03444,-0.05772 0.03444,-0.10061c0,-0.04212 -0.01148,-0.07527 -0.03444,-0.09944zm1.44165,-0.15911c0.04708,0.04992 0.07062,0.11816 0.07062,0.20473l0,0.38256l-0.2288,0l0,-0.35214c0,-0.0351 -0.00973,-0.0624 -0.02918,-0.08189c-0.01946,-0.0195 -0.04592,-0.02925 -0.07938,-0.02925c-0.03346,0 -0.05992,0.00975 -0.07938,0.02925c-0.01945,0.01949 -0.02918,0.04679 -0.02918,0.08189l0,0.35214l-0.2288,0l0,-0.35214c0,-0.0351 -0.00953,-0.0624 -0.0286,-0.08189c-0.01906,-0.0195 -0.04533,-0.02925 -0.07879,-0.02925c-0.03424,0 -0.06109,0.00975 -0.08055,0.02925c-0.01945,0.01949 -0.02918,0.04679 -0.02918,0.08189l0,0.35214l-0.2288,0l0,-0.65631l0.2288,0l0,0.08657c0.02023,-0.02808 0.0465,-0.0505 0.07879,-0.06727c0.0323,-0.01677 0.06946,-0.02515 0.11148,-0.02515c0.04825,0 0.09125,0.01053 0.12899,0.03158c0.03775,0.02106 0.06751,0.0507 0.0893,0.08892c0.02335,-0.03588 0.05409,-0.06493 0.09222,-0.08716c0.03814,-0.02223 0.08016,-0.03334 0.12607,-0.03334c0.0825,0 0.14728,0.02496 0.19437,0.07487zm0.37531,0.54108c-0.06459,-0.03627 -0.11576,-0.08658 -0.1535,-0.15092c-0.03775,-0.06434 -0.05662,-0.13707 -0.05662,-0.21819c0,-0.08111 0.01887,-0.15384 0.05662,-0.21818c0.03774,-0.06434 0.08891,-0.11445 0.1535,-0.15033c0.06459,-0.03588 0.13541,-0.05382 0.21245,-0.05382c0.07783,0 0.14884,0.01794 0.21304,0.05382c0.0642,0.03588 0.11498,0.08599 0.15234,0.15033c0.03735,0.06434 0.05603,0.13707 0.05603,0.21818c0,0.08112 -0.01868,0.15385 -0.05603,0.21819c-0.03736,0.06434 -0.08833,0.11465 -0.15292,0.15092c-0.06459,0.03626 -0.13541,0.0544 -0.21246,0.0544c-0.07704,0 -0.14786,-0.01814 -0.21245,-0.0544zm0.35078,-0.21585c0.03385,-0.03822 0.05078,-0.0893 0.05078,-0.15326c0,-0.06551 -0.01693,-0.11718 -0.05078,-0.15501c-0.03385,-0.03782 -0.07996,-0.05674 -0.13833,-0.05674c-0.05914,0 -0.10544,0.01892 -0.13891,0.05674c-0.03346,0.03783 -0.05019,0.0895 -0.05019,0.15501c0,0.06474 0.01673,0.11602 0.05019,0.15385c0.03347,0.03782 0.07977,0.05674 0.13891,0.05674c0.05837,0 0.10448,-0.01911 0.13833,-0.05733zm0.70564,-0.36735c0.03657,-0.02183 0.07587,-0.03275 0.1179,-0.03275l0,0.2445l-0.06421,0c-0.0498,0 -0.08677,0.00975 -0.11089,0.02925c-0.02413,0.0195 -0.03619,0.05343 -0.03619,0.10178l0,0.28663l-0.2288,0l0,-0.65631l0.2288,0l0,0.11582c0.02568,-0.03744 0.05681,-0.06708 0.09339,-0.08892zm0.50197,-0.00877c0.03269,-0.01755 0.07121,-0.02632 0.11557,-0.02632c0.05214,0 0.09942,0.01365 0.14183,0.04094c0.04241,0.0273 0.07588,0.0663 0.10039,0.11699c0.02451,0.0507 0.03677,0.10997 0.03677,0.17783c0,0.06785 -0.01226,0.12732 -0.03677,0.17841c-0.02451,0.05108 -0.05798,0.09027 -0.10039,0.11757c-0.04241,0.0273 -0.08969,0.04095 -0.14183,0.04095c-0.04436,0 -0.08288,-0.00878 -0.11557,-0.02633c-0.03268,-0.01755 -0.05797,-0.04192 -0.07587,-0.07312l0,0.09126l-0.2288,0l0,-0.86572l0.2288,0l0,0.30066c0.0179,-0.0312 0.04319,-0.05557 0.07587,-0.07312zm0.12783,0.20941c-0.02296,-0.02379 -0.05117,-0.03568 -0.08464,-0.03568c-0.03346,0 -0.06167,0.01209 -0.08463,0.03627c-0.02295,0.02417 -0.03443,0.05732 -0.03443,0.09944c0,0.04289 0.01148,0.07643 0.03443,0.10061c0.02296,0.02418 0.05117,0.03626 0.08463,0.03626c0.03347,0 0.06168,-0.01228 0.08464,-0.03685c0.02295,-0.02457 0.03443,-0.05791 0.03443,-0.10002c0,-0.0429 -0.01148,-0.07624 -0.03443,-0.10003zm0.37703,-0.32172c-0.0245,-0.02223 -0.03677,-0.05011 -0.03677,-0.08365c0,-0.03431 0.01227,-0.06278 0.03677,-0.0854c0.0245,-0.02262 0.057,-0.03393 0.0975,-0.03393c0.0397,0 0.0718,0.01131 0.0963,0.03393c0.0245,0.02262 0.0368,0.05109 0.0368,0.0854c0,0.03354 -0.0123,0.06142 -0.0368,0.08365c-0.0245,0.02223 -0.0566,0.03334 -0.0963,0.03334c-0.0405,0 -0.073,-0.01111 -0.0975,-0.03334zm0.2107,0.09418l0,0.65631l-0.2288,0l0,-0.65631l0.2288,0zm0.5148,0.46093l0,0.19538l-0.0992,0c-0.1674,0 -0.251,-0.08307 -0.251,-0.24919l0,-0.21643l-0.0806,0l0,-0.19069l0.0806,0l0,-0.15911l0.2299,0l0,0.15911l0.1191,0l0,0.19069l-0.1191,0l0,0.21994c0,0.01794 0.0041,0.03081 0.0123,0.03861c0.0082,0.00779 0.022,0.01169 0.0414,0.01169l0.0666,0z"/>
   <path id="svg_6" fill-opacity="0.97" fill="#E83F25" d="m0.45092,2.51685l0.59512,1.03333l0.40148,-0.69795l-0.35458,-0.61551l0.51638,-0.89521l1.03275,0l0.5125,0.89521l-0.35415,0.61551l0.40148,0.69752l0.59513,-1.0329c0.10276,-0.17284 0.10276,-0.38829 0,-0.56113l-0.59513,-1.03247c-0.09783,-0.17493 -0.28329,-0.28211 -0.48324,-0.27926l-1.18981,0c-0.1998,-0.00269 -0.38505,0.10446 -0.48281,0.27926l-0.59512,1.03334c-0.10243,0.17262 -0.10243,0.38763 0,0.56026z" clip-rule="evenodd" fill-rule="evenodd"/>
  </g>
 </g>
</svg>